<svg xmlns="http://www.w3.org/2000/svg" version="1.1" xmlns:xlink="http://www.w3.org/1999/xlink" xmlns:svgjs="http://svgjs.dev/svgjs" width="1500" height="1500" viewBox="0 0 1500 1500"><rect width="1500" height="1500" fill="#ffffff"></rect><g transform="matrix(0.6666666666666666,0,0,0.6666666666666666,250.00014687500004,187.66666666666674)"><svg viewBox="0 0 320 360" data-background-color="#ffffff" preserveAspectRatio="xMidYMid meet" height="1687" width="1500" xmlns="http://www.w3.org/2000/svg" xmlns:xlink="http://www.w3.org/1999/xlink"><g id="tight-bounds" transform="matrix(1,0,0,1,0,0)"><svg viewBox="0 0 320 360" height="360" width="320"><g><svg></svg></g><g><svg viewBox="0 0 320 360" height="360" width="320"><g><path transform="translate(-74.99272,-51.79039) scale(4.65793,4.65793)" d="M20.6 59.9l0.8 1-0.4-1.3c-0.1-0.6-0.8 0.1-0.4 0.3M21.5 59.3c0.3 0.5 0.6 1 0.6 1.5 0 0.7 0.6 1 1.1 1.2-0.7-0.8-1.1-3-1.7-2.7M59.9 16.9c1.7 0 3.3-0.2 5.1 0.2 4.4 1.1 8.1 3.3 10.6 6.4l7 11.2c0.3 2.8 0.9 5.9 0.8 9.3 0.7 0 0.6-1 1.4-1.2-0.8 2-1.2 4.5-1.4 7.4-0.5-1.6 0-4 0.1-5.3-0.7 1.1-1.1 0.3-1.1-0.2 0.1-0.8-0.3-0.7-0.6-1-1.1-1-1.8-2.1-2.6-3.8 0.5-1.3 0.6-3.2-1-4.2-0.5-0.3-1.1-0.8-1.4-1.6-0.4-1.1-1.1-2.4-0.9-4.1 0.1-0.5-1.5 1.1-2.4 0.4-3.9-2.7-7.8-5.8-12.5-8.4-2.5 0-4.3-0.9-5.2-2-0.8-1-0.2-2.3 1-2.4 0.7 0 1.5-0.2 2.1 0.2 0.1-0.4 0.5-0.9 1-0.9M50 14.6l0.2 0.1c1 0.2 1.5 1.6 2.6 1.1 0 0.7 0.1 1.4-0.1 1.9-0.3 0.8-1.2 0.8-1.9 0.8-6.7-0.4-10.6 2.4-14.7 4.8-1.1 0.7-2.3 1.2-3.2 2.1-4.3 4-9 7.7-10.1 15.1l-0.9 8.2c-0.1 0.9-1.1 1.8-0.9 2.9l0.7 4.9c-0.7-0.7-1.1 0.2-0.9 0.6 0.1 0.3 0.5 1.3 1.1 0.4 0.8 1.5 1.6 4.4 2.7 5.7 3.4 4 7.8 7.6 11.4 11.2 0.9-0.2 1.6-0.2 1.8-0.8 0.3 0.6-0.3 1.2-0.8 1.3 1.6 1 3.4 1.9 5.8 2.1 3.1 0.2 6 0.7 8.7 1.4 1.4-0.4 2.8-0.6 4.3-0.7 0.5 0 0.8-0.8 1.4-1l0.1-1c0.6 0.9 0.5-0.3 0.1-0.9 0.7 0.6 0.9 1.1 1.2 1.5 0-0.3 0.8-1.4 0.8-0.1l0.2-1.3c0.3-0.2 0.4 1.1 0.7 0.2 0.3-0.9 0.9-0.2 1.5-0.5-0.2 0.4-0.1 1.2 0.6 0.7l0.8-0.7c0.5 1.2 1.3 0.7 1.7 0.5 4.4-2.8 8.8-6.1 13-9.4l-0.1 1.3 0.5-1.6c0.5 0.5 0.9 0.1 1.1-0.2 0.6-1 1.4-2 2.7-2.9-1.6 4.3-3.5 7.7-5.9 10.5l-1 1.2c0 0.7-0.2 1.6-1 1.7-0.4 0.1-1.2-0.2-1.8 0.4-0.3 0.4 0.7 1.2-0.1 0.6-0.7-0.5-1.4 0-2.2 0.2-0.6 0.2 0.4 0.8 0.6 1.2 0.2 0.4 0.4 0.8 0.3 1.3l-1.1-1.2c-1.3 0.7-2.1 2-3.2 3-0.5 0.4-0.3 1.1-0.3 1.7-0.7 0-1.5-0.2-1.9 0.2-0.3 0.4-0.2 1-0.2 1.6-1-0.1-1.1-1.6-2-1.3-0.9 0.2-1.9 0.3-2.7 0.8 0.6 1.2-1 0.5-0.8 0.7-1.5-0.9-2.8-1.6-4.4-1-3.4-1.1-7.6-0.6-10.7-0.2 0-0.5 0.1-1-0.1-1.1-0.2 0.5-0.8 0.3-0.7 0.3-1.9-1.3-3.8-2.1-5.8-3.2-1.8 0.2-3.5-0.7-4-1.2-1.4-1.3-3-0.6-4.3-0.9-2.8-0.7-3.8-3.6-4.1-5.6-0.2-1-1-1.4-1.3-1.3-1.3-4.2-3.3-8-4.9-11.9-0.4-1-0.3-2-0.3-3.1 0.5 0.2 1 0.1 0.9-0.6-0.5-3.3-1.7-5.8-3-8.2 0.7-3.4 0.8-7.4 2.4-10.4 1.4-2.7 4-4.1 5.8-6.4 0.6-0.8 0.6-1.9 1.2-2.6 2-2 4-4.1 6.2-5.9 1-0.8 2.2 0 3.7-0.3 0.5-1.8 2.5-3.4 4.4-2.9 0.8 0.2 2.4-1.9 2.9-2.1 0.8-0.3 0.4 0.8 0.4 1.5 1.9-1.5 4.5-2.3 6.9-3.2" fill="#000000" fill-rule="nonzero" stroke="none" stroke-width="1" stroke-linecap="butt" stroke-linejoin="miter" stroke-miterlimit="10" stroke-dasharray="" stroke-dashoffset="0" font-family="none" font-weight="none" font-size="none" text-anchor="none" style="mix-blend-mode: normal" data-fill-palette-color="tertiary"></path></g><g transform="matrix(1,0,0,1,64,123.12733366153844)"><svg viewBox="0 0 192 113.74533267692311" height="113.74533267692311" width="192"><g><svg viewBox="0 0 192 113.74533267692311" height="113.74533267692311" width="192"><g transform="matrix(1,0,0,1,0,70.29917883076925)"><svg viewBox="0 0 192 43.446153846153855" height="43.446153846153855" width="192"><g id="textblocktransform"><svg viewBox="0 0 192 43.446153846153855" height="43.446153846153855" width="192" id="textblock"><g><svg viewBox="0 0 192 43.446153846153855" height="43.446153846153855" width="192"><g transform="matrix(1,0,0,1,0,0)"><svg width="192" viewBox="3 -34.55 155.99 35.3" height="43.446153846153855" data-palette-color="#f00b51"><path d="M10.7-34.55Q15.05-34.55 18.23-33.23 21.4-31.9 23.38-28.13 25.35-24.35 25.35-17.45L25.35-17.45Q25.35-7.7 21.48-3.85 17.6 0 11.35 0L11.35 0 3 0 3-34.55 10.7-34.55ZM11.65-29.8L9.35-29.8 9.35-4.75 11.7-4.75Q13.95-4.75 15.48-5.8 17-6.85 17.88-9.65 18.75-12.45 18.75-17.45L18.75-17.45Q18.75-22.55 17.82-25.25 16.9-27.95 15.38-28.88 13.85-29.8 11.65-29.8L11.65-29.8ZM30.1-34.55L47.25-34.55 46.6-29.8 36.45-29.8 36.45-19.9 45.3-19.9 45.3-15.2 36.45-15.2 36.45-4.8 47.25-4.8 47.25 0 30.1 0 30.1-34.55ZM75.25-27.15Q77.9-27.15 79.5-25.1 81.09-23.05 81.09-19.6L81.09-19.6 81.09 0 75.05 0 75.05-18.95Q75.05-20.85 74.55-21.68 74.05-22.5 73.09-22.5L73.09-22.5Q71.15-22.5 69.34-18.8L69.34-18.8 69.34 0 63.35 0 63.35-18.95Q63.35-22.5 61.45-22.5L61.45-22.5Q59.4-22.5 57.65-18.8L57.65-18.8 57.65 0 51.6 0 51.6-26.45 56.95-26.45 57.35-23.05Q59.95-27.15 63.6-27.15L63.6-27.15Q65.45-27.15 66.8-26 68.15-24.85 68.84-22.75L68.84-22.75Q71.5-27.15 75.25-27.15L75.25-27.15ZM104.74-26.45L104.74 0 99.39 0 99.09-3.35Q97.84-1.3 96.29-0.28 94.74 0.75 92.69 0.75L92.69 0.75Q89.79 0.75 88.12-1.3 86.44-3.35 86.44-6.65L86.44-6.65 86.44-26.45 92.59-26.45 92.59-7Q92.59-3.9 94.69-3.9L94.69-3.9Q95.89-3.9 96.84-4.83 97.79-5.75 98.59-7.45L98.59-7.45 98.59-26.45 104.74-26.45ZM116.94 0L110.59 0 110.59-34.55 127.29-34.55 126.59-29.8 116.94-29.8 116.94-19.25 125.34-19.25 125.34-14.5 116.94-14.5 116.94 0ZM156.79-34.55L158.99 0 152.94 0 152.34-14.6Q152.04-22.6 152.04-26L152.04-26 152.09-28.6 147.34-3.8 141.34-3.8 136.39-28.65Q136.44-27.15 136.44-24.05L136.44-24.05Q136.44-18.8 136.24-14.4L136.24-14.4 135.69 0 129.74 0 131.94-34.55 139.94-34.55 144.44-10.2 148.64-34.55 156.79-34.55Z" opacity="1" transform="matrix(1,0,0,1,0,0)" fill="#000000" class="wordmark-text-0" data-fill-palette-color="primary" id="text-0"></path></svg></g></svg></g></svg></g></svg></g><g transform="matrix(1,0,0,1,75.3531956496939,0)"><svg viewBox="0 0 41.293608700612204 60.042584615384634" height="60.042584615384634" width="41.293608700612204"><g><svg xmlns="http://www.w3.org/2000/svg" xmlns:xlink="http://www.w3.org/1999/xlink" version="1.1" x="0" y="0" viewBox="5 0 22.007638193526585 32" enable-background="new 0 0 32 32" xml:space="preserve" height="60.042584615384634" width="41.293608700612204" class="icon-icon-0" data-fill-palette-color="accent" id="icon-0"></svg></g></svg></g><g></g></svg></g></svg></g></svg></g><defs></defs><mask id="32a81916-1e7b-493e-a885-826861991c2c"><g id="SvgjsG2570"><svg viewBox="0 0 320 360" height="360" width="320"><g><svg></svg></g><g><svg viewBox="0 0 320 360" height="360" width="320"><g><path transform="translate(-74.99272,-51.79039) scale(4.65793,4.65793)" d="M20.6 59.9l0.8 1-0.4-1.3c-0.1-0.6-0.8 0.1-0.4 0.3M21.5 59.3c0.3 0.5 0.6 1 0.6 1.5 0 0.7 0.6 1 1.1 1.2-0.7-0.8-1.1-3-1.7-2.7M59.9 16.9c1.7 0 3.3-0.2 5.1 0.2 4.4 1.1 8.1 3.3 10.6 6.4l7 11.2c0.3 2.8 0.9 5.9 0.8 9.3 0.7 0 0.6-1 1.4-1.2-0.8 2-1.2 4.5-1.4 7.4-0.5-1.6 0-4 0.1-5.3-0.7 1.1-1.1 0.3-1.1-0.2 0.1-0.8-0.3-0.7-0.6-1-1.1-1-1.8-2.1-2.6-3.8 0.5-1.3 0.6-3.2-1-4.2-0.5-0.3-1.1-0.8-1.4-1.6-0.4-1.1-1.1-2.4-0.9-4.1 0.1-0.5-1.5 1.1-2.4 0.4-3.9-2.7-7.8-5.8-12.5-8.4-2.5 0-4.3-0.9-5.2-2-0.8-1-0.2-2.3 1-2.4 0.7 0 1.5-0.2 2.1 0.2 0.1-0.4 0.5-0.9 1-0.9M50 14.6l0.2 0.1c1 0.2 1.5 1.6 2.6 1.1 0 0.7 0.1 1.4-0.1 1.9-0.3 0.8-1.2 0.8-1.9 0.8-6.7-0.4-10.6 2.4-14.7 4.8-1.1 0.7-2.3 1.2-3.2 2.1-4.3 4-9 7.7-10.1 15.1l-0.9 8.2c-0.1 0.9-1.1 1.8-0.9 2.9l0.7 4.9c-0.7-0.7-1.1 0.2-0.9 0.6 0.1 0.3 0.5 1.3 1.1 0.4 0.8 1.5 1.6 4.4 2.7 5.7 3.4 4 7.8 7.6 11.4 11.2 0.9-0.2 1.6-0.2 1.8-0.8 0.3 0.6-0.3 1.2-0.8 1.3 1.6 1 3.4 1.9 5.8 2.1 3.1 0.2 6 0.7 8.7 1.4 1.4-0.4 2.8-0.6 4.3-0.7 0.5 0 0.8-0.8 1.4-1l0.1-1c0.6 0.9 0.5-0.3 0.1-0.9 0.7 0.6 0.9 1.1 1.2 1.5 0-0.3 0.8-1.4 0.8-0.1l0.2-1.3c0.3-0.2 0.4 1.1 0.7 0.2 0.3-0.9 0.9-0.2 1.5-0.5-0.2 0.4-0.1 1.2 0.6 0.7l0.8-0.7c0.5 1.2 1.3 0.7 1.7 0.5 4.4-2.8 8.8-6.1 13-9.4l-0.1 1.3 0.5-1.6c0.5 0.5 0.9 0.1 1.1-0.2 0.6-1 1.4-2 2.7-2.9-1.6 4.3-3.5 7.7-5.9 10.5l-1 1.2c0 0.7-0.2 1.6-1 1.7-0.4 0.1-1.2-0.2-1.8 0.4-0.3 0.4 0.7 1.2-0.1 0.6-0.7-0.5-1.4 0-2.2 0.2-0.6 0.2 0.4 0.8 0.6 1.2 0.2 0.4 0.4 0.8 0.3 1.3l-1.1-1.2c-1.3 0.7-2.1 2-3.2 3-0.5 0.4-0.3 1.1-0.3 1.7-0.7 0-1.5-0.2-1.9 0.2-0.3 0.4-0.2 1-0.2 1.6-1-0.1-1.1-1.6-2-1.3-0.9 0.2-1.9 0.3-2.7 0.8 0.6 1.2-1 0.5-0.8 0.7-1.5-0.9-2.8-1.6-4.4-1-3.4-1.1-7.6-0.6-10.7-0.2 0-0.5 0.1-1-0.1-1.1-0.2 0.5-0.8 0.3-0.7 0.3-1.9-1.3-3.8-2.1-5.8-3.2-1.8 0.2-3.5-0.7-4-1.2-1.4-1.3-3-0.6-4.3-0.9-2.8-0.7-3.8-3.6-4.1-5.6-0.2-1-1-1.4-1.3-1.3-1.3-4.2-3.3-8-4.9-11.9-0.4-1-0.3-2-0.3-3.1 0.5 0.2 1 0.1 0.9-0.6-0.5-3.3-1.7-5.8-3-8.2 0.7-3.4 0.8-7.4 2.4-10.4 1.4-2.7 4-4.1 5.8-6.4 0.6-0.8 0.6-1.9 1.2-2.6 2-2 4-4.1 6.2-5.9 1-0.8 2.2 0 3.7-0.3 0.5-1.8 2.5-3.4 4.4-2.9 0.8 0.2 2.4-1.9 2.9-2.1 0.8-0.3 0.4 0.8 0.4 1.5 1.9-1.5 4.5-2.3 6.9-3.2" fill="black" fill-rule="nonzero" stroke="none" stroke-width="1" stroke-linecap="butt" stroke-linejoin="miter" stroke-miterlimit="10" stroke-dasharray="" stroke-dashoffset="0" font-family="none" font-weight="none" font-size="none" text-anchor="none" style="mix-blend-mode: normal"></path></g><g transform="matrix(1,0,0,1,64,123.12733366153844)"><svg viewBox="0 0 192 113.74533267692311" height="113.74533267692311" width="192"><g><svg viewBox="0 0 192 113.74533267692311" height="113.74533267692311" width="192"><g transform="matrix(1,0,0,1,0,70.29917883076925)"><svg viewBox="0 0 192 43.446153846153855" height="43.446153846153855" width="192"><g id="SvgjsG2569"><svg viewBox="0 0 192 43.446153846153855" height="43.446153846153855" width="192" id="SvgjsSvg2568"><g><svg viewBox="0 0 192 43.446153846153855" height="43.446153846153855" width="192"><g transform="matrix(1,0,0,1,0,0)"><svg width="192" viewBox="3 -34.55 155.99 35.3" height="43.446153846153855" data-palette-color="#f00b51"><path d="M10.7-34.55Q15.05-34.55 18.23-33.23 21.4-31.9 23.38-28.13 25.35-24.35 25.35-17.45L25.35-17.45Q25.35-7.7 21.48-3.85 17.6 0 11.35 0L11.35 0 3 0 3-34.55 10.7-34.55ZM11.65-29.8L9.35-29.8 9.35-4.75 11.7-4.75Q13.95-4.75 15.48-5.8 17-6.85 17.88-9.65 18.75-12.45 18.75-17.45L18.75-17.45Q18.75-22.55 17.82-25.25 16.9-27.95 15.38-28.88 13.85-29.8 11.65-29.8L11.65-29.8ZM30.1-34.55L47.25-34.55 46.6-29.8 36.45-29.8 36.45-19.9 45.3-19.9 45.3-15.2 36.45-15.2 36.45-4.8 47.25-4.8 47.25 0 30.1 0 30.1-34.55ZM75.25-27.15Q77.9-27.15 79.5-25.1 81.09-23.05 81.09-19.6L81.09-19.6 81.09 0 75.05 0 75.05-18.95Q75.05-20.85 74.55-21.68 74.05-22.5 73.09-22.5L73.09-22.5Q71.15-22.5 69.34-18.8L69.34-18.8 69.34 0 63.35 0 63.35-18.95Q63.35-22.5 61.45-22.5L61.45-22.5Q59.4-22.5 57.65-18.8L57.65-18.8 57.65 0 51.6 0 51.6-26.45 56.95-26.45 57.35-23.05Q59.95-27.15 63.6-27.15L63.6-27.15Q65.45-27.15 66.8-26 68.15-24.85 68.84-22.75L68.84-22.75Q71.5-27.15 75.25-27.15L75.25-27.15ZM104.74-26.45L104.74 0 99.39 0 99.09-3.35Q97.84-1.3 96.29-0.28 94.74 0.75 92.69 0.75L92.69 0.75Q89.79 0.75 88.12-1.3 86.44-3.35 86.44-6.65L86.44-6.65 86.44-26.45 92.59-26.45 92.59-7Q92.59-3.9 94.69-3.9L94.69-3.9Q95.89-3.9 96.84-4.83 97.79-5.75 98.59-7.45L98.59-7.45 98.59-26.45 104.74-26.45ZM116.94 0L110.59 0 110.59-34.55 127.29-34.55 126.59-29.8 116.94-29.8 116.94-19.25 125.34-19.25 125.34-14.5 116.94-14.5 116.94 0ZM156.79-34.55L158.99 0 152.94 0 152.34-14.6Q152.04-22.6 152.04-26L152.04-26 152.09-28.6 147.34-3.8 141.34-3.8 136.39-28.65Q136.44-27.15 136.44-24.05L136.44-24.05Q136.44-18.8 136.24-14.4L136.24-14.4 135.69 0 129.74 0 131.94-34.55 139.94-34.55 144.44-10.2 148.64-34.55 156.79-34.55Z" opacity="1" transform="matrix(1,0,0,1,0,0)" fill="black" class="wordmark-text-0" id="SvgjsPath2567"></path></svg></g></svg></g></svg></g></svg></g><g transform="matrix(1,0,0,1,75.3531956496939,0)"><svg viewBox="0 0 41.293608700612204 60.042584615384634" height="60.042584615384634" width="41.293608700612204"><g><svg xmlns="http://www.w3.org/2000/svg" xmlns:xlink="http://www.w3.org/1999/xlink" version="1.1" x="0" y="0" viewBox="5 0 22.007638193526585 32" enable-background="new 0 0 32 32" xml:space="preserve" height="60.042584615384634" width="41.293608700612204" class="icon-icon-0" data-fill-palette-color="accent" id="SvgjsSvg2566"><g fill="white"><g fill="white"><path fill="white" d="M22 9C21.938 11.675 19.93 13.934 19.93 13.934 19.93 8.958 16 5 16 5S15.947 7.962 13.957 10.948C11.967 3.981 5.995 0 5.995 0 8.981 10.948 5 14.93 5 22.892 5 27.563 8.954 32 15 32 23.957 32 25.689 28.712 26.615 25.007 27.891 19.906 25.98 13.976 22 9M24.676 24.521C24.033 27.09 23.307 30 15 30 9.992 30 7 26.386 7 22.892 7 20.216 7.488 18.019 8.004 15.693 8.66 12.744 9.332 9.725 9.041 5.732 12.125 10.001 13.223 15.657 13.223 15.657S16.094 11.626 16.866 9.754C17.457 10.957 18 15 18 19 18 19 20.656 16.812 22.648 13.522 24.746 17.284 25.502 21.217 24.676 24.521"></path><path fill="white" d="M22.432 16.795L21.582 17.78C20.529 19.008 19.533 20.172 16.874 21.51 16.493 20.368 16.147 19.111 16.147 17.187V15.478L14.629 17.856C14.117 18.667 13.693 19.339 13.061 20.232 12.102 18.07 11.424 16.471 10.909 15.02L10.43 13.67 9.91 15.18C9.25 17.101 8.625 18.915 8.625 23.624A0.5 0.5 0 1 0 9.625 23.624C9.625 20.015 9.984 18.228 10.465 16.683 10.985 18.005 11.641 19.508 12.502 21.433L12.854 22.217 13.362 21.525C14.192 20.395 14.686 19.635 15.227 18.782 15.385 20.261 15.75 21.322 16.112 22.372L16.294 22.9 16.8 22.661C19.503 21.377 20.768 20.208 21.772 19.086 21.928 20.95 21.682 22.99 21.098 24.439A0.5 0.5 0 0 0 21.563 25.125 0.5 0.5 0 0 0 22.026 24.812C22.801 22.888 23.034 20.148 22.618 17.83z"></path></g></g></svg></g></svg></g><g></g></svg></g></svg></g></svg></g><defs><mask></mask></defs></svg><rect width="320" height="360" fill="black" stroke="none" visibility="hidden"></rect></g></mask><linearGradient x1="0" x2="1" y1="0.5" y2="0.5" id="9f33e850-8d31-4bfa-9b3a-3fd694947768"><stop stop-color="#ffa62e" offset="0"></stop><stop stop-color="#f71b3d" offset="1"></stop></linearGradient><rect width="320.000047" height="360" fill="#000000" mask="url(#32a81916-1e7b-493e-a885-826861991c2c)" data-fill-palette-color="accent"></rect></svg><rect width="320" height="360" fill="none" stroke="none" visibility="hidden"></rect></g></svg></g></svg>